<svg width="366" height="366" viewBox="0 0 366 366" fill="none" xmlns="http://www.w3.org/2000/svg">
<g clip-path="url(#clip0_248_180)">
<path d="M366 183C366 284.068 284.068 366 183 366C81.9319 366 0 284.068 0 183C0 81.9319 81.9319 0 183 0C284.068 0 366 81.9319 366 183Z" fill="white"/>
<g clip-path="url(#clip1_248_180)">
<path d="M311.522 185.365C311.522 174.758 310.644 167.017 308.743 158.99H185.146V206.867H257.695C256.233 218.764 248.334 236.682 230.781 248.723L272.322 280.259C297.187 257.754 311.522 224.641 311.522 185.365Z" fill="#4081F7"/>
<path d="M185.138 311.509C220.68 311.509 250.519 300.041 272.314 280.26L230.773 248.723C219.657 256.321 204.737 261.625 185.138 261.625C150.326 261.625 120.78 239.12 110.248 208.014L67.5374 240.41C89.1849 282.553 133.651 311.509 185.138 311.509Z" fill="#2EA950"/>
<path d="M110.255 208.015C107.476 199.988 105.868 191.386 105.868 182.5C105.868 173.612 107.476 165.011 110.109 156.984L67.5449 124.588C58.6229 142.076 53.5034 161.715 53.5034 182.5C53.5034 203.284 58.6229 222.922 67.5449 240.41L110.255 208.015Z" fill="#FEBC03"/>
<path d="M185.138 103.374C209.858 103.374 226.532 113.838 236.04 122.582L273.192 87.0329C250.375 66.2481 220.681 53.4905 185.138 53.4905C133.651 53.4905 89.185 82.4457 67.5374 124.588L110.102 156.985C120.78 125.879 150.326 103.374 185.138 103.374Z" fill="#EE402F"/>
</g>
</g>
<defs>
<clipPath id="clip0_248_180">
<rect width="366" height="366" fill="white"/>
</clipPath>
<clipPath id="clip1_248_180">
<rect width="259" height="259" fill="white" transform="translate(53 53)"/>
</clipPath>
</defs>
</svg>
