<svg width="56" height="56" viewBox="0 0 56 56" fill="none" xmlns="http://www.w3.org/2000/svg">
<path fill-rule="evenodd" clip-rule="evenodd" d="M36.7559 20.0194C36.7559 20.0194 36.8559 20.0194 36.8559 20.1194C38.1559 21.0194 35.3559 28.6194 36.6559 28.8194C37.9559 29.1194 40.4559 19.7194 41.7559 20.4194C43.1559 21.1194 38.3559 29.8194 39.0559 30.1194C39.7559 30.4194 44.8559 22.2194 45.6559 23.0194C46.5559 23.8194 40.3559 31.6194 41.0559 32.1194C41.6559 32.5194 46.3559 29.3194 47.6559 28.9194C47.9559 28.8194 48.0559 28.9194 47.8559 29.4194C47.7559 29.5194 47.7559 29.5194 47.6559 29.6194C46.6559 30.9194 45.4559 31.9194 44.1559 32.8194C42.8559 33.7194 41.6559 34.9194 40.7559 36.3194C40.2559 37.1194 39.7559 37.8194 39.2559 38.3194L39.1559 38.8194L37.5559 45.1194C36.0559 45.5194 34.4559 45.6194 32.8559 45.6194C31.5559 45.6194 30.3559 45.5194 29.0559 45.4194C30.1559 43.7194 30.9559 41.6194 31.3559 39.9194C31.2559 39.6194 31.0559 39.3194 30.9559 38.9194C30.8559 38.7194 30.8559 38.5194 30.7559 38.2194C27.1559 30.8194 23.1559 30.8194 24.1559 29.6194C24.5559 29.1194 24.9559 28.9194 25.4559 29.0194C25.7559 29.1194 26.1559 29.2194 26.5559 29.4194C27.7559 30.0194 28.4559 31.1194 29.4559 31.7194C30.4559 32.3194 31.4559 31.6194 32.2559 30.9194C32.7559 30.4194 33.1559 29.7194 33.4559 29.0194C35.1559 25.5194 35.3559 19.6194 36.7559 20.0194Z" fill="#F39D56" fill-opacity="0.96"/>
<path fill-rule="evenodd" clip-rule="evenodd" d="M15.6256 20.0189C15.6256 20.0189 15.5129 20.0189 15.5129 20.1165C14.048 20.9947 17.2033 28.411 15.7383 28.6061C14.2734 28.8989 11.4562 19.7261 9.99122 20.4092C8.41359 21.0923 13.8226 29.582 13.0338 29.8747C12.245 30.1675 6.4979 22.1657 5.59639 22.9463C4.5822 23.727 11.5689 31.3384 10.78 31.8264C10.1039 32.2167 4.80758 29.094 3.34263 28.7037C3.00457 28.6061 2.89188 28.7037 3.11725 29.1916C3.22994 29.2892 3.22994 29.2892 3.34263 29.3868C4.46951 30.6554 5.82177 31.6312 7.28671 32.5094C8.75166 33.3877 10.1039 34.5587 11.1181 35.9248C11.6815 36.7055 12.245 37.3886 12.8084 37.8765L12.9211 38.3644L14.7241 44.5121C16.4144 44.9024 18.2175 45 20.0205 45C21.4854 45 22.8377 44.9024 24.3026 44.8048C23.063 43.1459 22.1615 41.0967 21.7108 39.4378C21.8235 39.145 22.0489 38.8523 22.1615 38.462C22.2742 38.2668 22.2742 38.0716 22.3869 37.7789C26.4437 30.5578 30.9512 30.5578 29.8243 29.3868C29.3736 28.8989 28.9228 28.7037 28.3594 28.8013C28.0213 28.8989 27.5706 28.9965 27.1198 29.1916C25.7676 29.7771 24.9787 30.8505 23.8519 31.436C22.725 32.0215 21.5981 31.3384 20.6966 30.6554C20.1332 30.1675 19.6824 29.4844 19.3443 28.8013C17.4286 25.3859 17.2033 19.6285 15.6256 20.0189Z" fill="#F39D56"/>
</svg>
