<svg width="56" height="56" viewBox="0 0 56 56" fill="none" xmlns="http://www.w3.org/2000/svg">
<g clip-path="url(#clip0_20_1230)">
<path d="M28 56C43.464 56 56 43.464 56 28C56 12.536 43.464 0 28 0C12.536 0 0 12.536 0 28C0 43.464 12.536 56 28 56Z" fill="#CCEFDC"/>
<path d="M28.0001 46.5451C41.2482 46.5451 51.988 45.9547 51.988 45.2264C51.988 44.4982 41.2482 43.9078 28.0001 43.9078C14.7519 43.9078 4.01208 44.4982 4.01208 45.2264C4.01208 45.9547 14.7519 46.5451 28.0001 46.5451Z" fill="#99E0B9"/>
<path d="M45.2265 45.4229H12.0081C9.39884 45.4229 7.23853 43.2626 7.23853 40.6534V16.4129C7.23853 13.8037 9.39884 11.6433 12.0081 11.6433H45.2265C47.8638 11.6433 49.996 13.8037 49.996 16.4129V40.6253C49.996 43.2626 47.8357 45.4229 45.2265 45.4229Z" fill="#008E3F"/>
<path d="M45.2264 45.4229H15.01C12.3727 45.4229 10.2405 43.2626 10.2405 40.6534V16.4129C10.2405 13.8037 12.3727 11.6433 15.01 11.6433H45.2264C47.8637 11.6433 49.996 13.8037 49.996 16.4129V40.6253C49.996 43.2626 47.8357 45.4229 45.2264 45.4229Z" fill="#00B14F"/>
<path d="M10.2405 21.3227H7.23853V26.3728H10.2405V21.3227Z" fill="#C6A135"/>
<path d="M49.996 21.3227H10.2405V26.3728H49.996V21.3227Z" fill="#F7C942"/>
<path d="M21.1665 11.6602V45.4117H26.2166V11.6602H21.1665Z" fill="#F7C942"/>
<path d="M23.455 25.5872L29.6834 36.978L30.7215 33.6955L34.1443 34.5652L27.8878 23.1464L23.455 25.5872Z" fill="#FCE9B3"/>
<path d="M24.016 25.5872L17.7595 36.978L16.7495 33.6955L13.3267 34.5652L19.5551 23.1464L24.016 25.5872Z" fill="#FCE9B3"/>
<path d="M13.2705 18.2084V26.7375C13.2705 28.1403 14.7575 29.01 15.992 28.3086L23.539 24.0441C24.7735 23.3427 24.7735 21.5751 23.539 20.8737L15.9639 16.6373C14.7575 15.9639 13.2705 16.8337 13.2705 18.2084Z" fill="#FCE9B3"/>
<path d="M34.0881 18.2084V26.7375C34.0881 28.1403 32.6011 29.01 31.3666 28.3086L23.8476 24.0721C22.6131 23.3707 22.6131 21.6032 23.8476 20.9018L31.3947 16.6373C32.5731 15.9639 34.0881 16.8337 34.0881 18.2084Z" fill="#FCE9B3"/>
<path d="M34.0881 26.7375C34.0881 26.7375 34.0039 25.5311 32.3486 25.2505C30.6933 24.97 24.1282 24.2125 24.1282 24.2125L31.3667 28.3087C31.3667 28.3087 32.3767 28.9539 33.4709 28.0842C33.4709 28.0842 34.0881 27.6353 34.0881 26.7375Z" fill="#C6A135"/>
<path d="M13.2705 26.7375C13.2705 26.7375 13.3547 25.5311 15.01 25.2505C16.6653 24.97 23.2304 24.2125 23.2304 24.2125L15.9639 28.3367C15.9639 28.3367 14.9539 28.982 13.8597 28.1123C13.8597 28.0842 13.2705 27.6353 13.2705 26.7375Z" fill="#C6A135"/>
<path d="M25.4749 26.1202H21.9959C21.2104 26.1202 20.5931 25.503 20.5931 24.7174V20.2565C20.5931 19.4709 21.2104 18.8537 21.9959 18.8537H25.4749C26.2605 18.8537 26.8777 19.4709 26.8777 20.2565V24.7174C26.8777 25.4749 26.2324 26.1202 25.4749 26.1202Z" fill="#FDF4D9"/>
<path d="M34.4809 42.3928H47.022C47.5551 42.3928 47.9759 41.9719 47.9759 41.4389C47.9759 40.9058 47.5551 40.485 47.022 40.485H34.4809C33.9478 40.485 33.527 40.9058 33.527 41.4389C33.4989 41.9439 33.9478 42.3928 34.4809 42.3928Z" fill="#008E3F"/>
<path d="M40.3447 38.493H46.994C47.527 38.493 47.9479 38.0722 47.9479 37.5391C47.9479 37.006 47.527 36.5852 46.994 36.5852H40.3447C39.8116 36.5852 39.3907 37.006 39.3907 37.5391C39.3907 38.0722 39.8396 38.493 40.3447 38.493Z" fill="#008E3F"/>
</g>
<defs>
<clipPath id="clip0_20_1230">
<rect width="56" height="56" fill="white"/>
</clipPath>
</defs>
</svg>
