<svg width="56" height="56" viewBox="0 0 56 56" fill="none" xmlns="http://www.w3.org/2000/svg">
<g clip-path="url(#clip0_20_1203)">
<path d="M28 56C43.5 56 56 43.5 56 28C56 12.5 43.5 0 28 0C12.5 0 0 12.5 0 28C0 43.5 12.5 56 28 56Z" fill="#CCEFDC"/>
<path d="M27.1 39.8V38.7C27.1 37.5 28 36.5 29.2 36.5H33.5C35.3 36.5 36.9 38 37.1 39.9L27.1 39.8Z" fill="#354E40"/>
<path d="M39.2 24.7C40.3 25.5 40.3 26.8 40.3 27.9V29.1C40.3 31.1 38.6 32.8 36.6 32.8H33.8V24.7H39.2Z" fill="#354E40"/>
<path d="M33 26.5H23.5V39.8H33V26.5Z" fill="#F39D56"/>
<path d="M27.8 38.7V39.8H33.5V34.6H26.5L26.8 35.1C27.5 36.2 27.8 37.5 27.8 38.7Z" fill="#354E40"/>
<path d="M32.5 35.7H28.5L22.3 29.3V18.4H37.9V28.2C37.9 29.9 37.3 31.6 36.2 32.9L34.4 34.9C33.7 35.5 33.1 35.7 32.5 35.7Z" fill="#F39D56"/>
<path d="M36.6 28L34.2 23.5V21.3C34.2 20.9 33.8 20.5 33.4 20.5H25L26.4 26.5H22.4V27.1V30.4L26.9 35.1C27.3 35.5 27.8 35.7 28.3 35.7H28.6H31.2H33.3C33.7 35.7 34.1 35.3 34.1 34.9V29.1H35.8C36.5 29.1 36.9 28.5 36.6 28Z" fill="#FDF4D9"/>
<path d="M41.5 16.9H20.4V26.1C20.4 26.1 21.2 29.5 22.5 30.5L23.4 31.2V26.7H26.5V21.6C26.5 20.3 27.6 19.2 28.9 19.2H37.7V26.7C38.5 26.7 39.2 26 39.2 25.2V20.2C40.2 19.9 41.5 18.9 41.5 16.9Z" fill="#002F0A"/>
<path d="M21.8 32.8H24.6C26.6 32.8 28.3 31.1 28.3 29.1V27.9C28.3 26.7 27.9 25.6 27.2 24.7L24.1 20.5C23.4 19.5 24.1 18.2 25.3 18.2H42.2C41.3 11 35.2 5.5 27.9 5.5C20 5.5 13.6 11.9 13.6 19.8C13.6 25.5 17 30.5 21.8 32.8Z" fill="#00B14F"/>
<path d="M24.6 33.7H22.2C21.7 33.7 21.3 33.3 21.3 32.8C21.3 32.3 21.7 31.9 22.2 31.9H24.6C26.2 31.9 27.4 30.6 27.4 29.1V27.9C27.4 26.9 27.1 26 26.5 25.2L23.4 21C22.9 20.3 22.8 19.3 23.2 18.5C23.6 17.7 24.4 17.2 25.3 17.2H42.2C42.7 17.2 43.1 17.6 43.1 18.1C43.1 18.6 42.6 19 42.1 19H25.3C25 19 24.8 19.2 24.8 19.3C24.8 19.4 24.7 19.6 24.9 19.9L28 24.1C28.8 25.2 29.2 26.5 29.2 27.8V29C29.1 31.6 27.1 33.7 24.6 33.7Z" fill="#354E40"/>
<path d="M21 39.7V38.6C21 37.4 21.9 36.4 23.1 36.4H27.4C29.2 36.4 30.7 37.9 31 39.8L21 39.7Z" fill="#00B14F"/>
<mask id="mask0_20_1203" style="mask-type:alpha" maskUnits="userSpaceOnUse" x="0" y="0" width="56" height="56">
<path d="M28 56C43.5 56 56 43.5 56 28C56 12.5 43.5 0 28 0C12.5 0 0 12.5 0 28C0 43.5 12.5 56 28 56Z" fill="#CCEFDC"/>
</mask>
<g mask="url(#mask0_20_1203)">
<path d="M47.7 56.3H8.5V45.8C8.5 42.5 11.2 39.7 14.6 39.7H41.6C44.9 39.7 47.7 42.4 47.7 45.8V56.3Z" fill="#354E40"/>
<path d="M23.2 39.7H14.6C11.3 39.7 8.5 42.4 8.5 45.8V56.4H17.1V45.8C17.2 42.5 19.9 39.7 23.2 39.7Z" fill="#00B14F"/>
</g>
</g>
<defs>
<clipPath id="clip0_20_1203">
<rect width="56" height="56" fill="white"/>
</clipPath>
</defs>
</svg>
