<svg width="56" height="56" viewBox="0 0 56 56" fill="none" xmlns="http://www.w3.org/2000/svg">
<g clip-path="url(#clip0_20_1142)">
<path d="M56 28C56 33 54.7 37.7 52.4 41.8C50.9 44.4 49.1 46.7 46.9 48.7C45.8 49.7 44.7 50.5 43.5 51.3C41.8 52.5 39.9 53.4 37.9 54.2C37.3 54.4 36.7 54.6 36.1 54.8C35.4 55 34.8 55.2 34.1 55.3C33.8 55.4 33.6 55.4 33.3 55.5C33.2 55.5 33.1 55.5 33 55.5C32.7 55.6 32.5 55.6 32.2 55.6C31.9 55.6 31.5 55.7 31.2 55.7C31 55.7 30.7 55.7 30.4 55.8C30.1 55.8 29.7 55.8 29.4 55.9C29 55.9 28.5 55.9 28.1 55.9C27.7 55.9 27.3 55.9 26.8 55.9C26.6 55.9 26.4 55.9 26.1 55.9C17.4 55.3 9.7 50.8 5 44C1.8 39.5 0 34 0 28C0 12.5 12.5 0 28 0C43.5 0 56 12.5 56 28Z" fill="#CCEFDC"/>
<path fill-rule="evenodd" clip-rule="evenodd" d="M26.1 40.3H21V32.2H26.1C28.3 32.2 30.1 34 30.1 36.2C30.1 38.5 28.3 40.3 26.1 40.3Z" fill="#99E0B9"/>
<path fill-rule="evenodd" clip-rule="evenodd" d="M36 38.4V54.8C35.3 55 34.7 55.2 34 55.3C33.7 55.4 33.5 55.4 33.2 55.5C33.1 55.5 33 55.5 32.9 55.5C32.6 55.6 32.4 55.6 32.1 55.6C31.8 55.6 31.4 55.7 31.1 55.7C30.9 55.7 30.6 55.7 30.3 55.8C30 55.8 29.6 55.8 29.3 55.9C28.9 55.9 28.4 55.9 28 55.9C27.6 55.9 27.2 55.9 26.7 55.9C26.5 55.9 26.3 55.9 26 55.9V36.4C26 36.1 26.1 35.7 26.3 35.5C26.5 35.3 26.9 35.1 27.2 35.1H32.6C33.5 35.1 34.3 35.4 34.8 36C35.6 36.7 36 37.5 36 38.4Z" fill="#99E0B9"/>
<path fill-rule="evenodd" clip-rule="evenodd" d="M24.8 16.1H18.1C17.5 16.1 16.9 16.3 16.4 16.8C16 17.2 15.7 17.2 15.7 17.8V24.7C15.7 25.3 15.9 25.9 16.4 26.3L24.7 32.1L24.8 16.1Z" fill="#4B4B4B"/>
<path d="M27.6 25.6H18.4V38.6H27.6V25.6Z" fill="#F39D56"/>
<path fill-rule="evenodd" clip-rule="evenodd" d="M26.8 36.4V38.6V40.2V54.2V56C26.6 56 26.4 56 26.1 56C17.4 55.3 9.7 50.8 5 44V41.7C5 38.1 7.9 35.1 11.5 35.1H25.5C25.9 35.1 26.2 35.2 26.4 35.5C26.6 35.8 26.8 36.1 26.8 36.4Z" fill="white"/>
<path fill-rule="evenodd" clip-rule="evenodd" d="M21.3 25.9V30.1L24.7001 36.6V38.6L27.5 40.8V25.3L21.3 25.9Z" fill="#F39D56"/>
<path fill-rule="evenodd" clip-rule="evenodd" d="M19 20.3V27.2C19 27.7 19.2 28.1 19.5 28.5L22.6 31.7C23 32.1 23.5 32.3 24.1 32.3H28C28.3 32.3 28.7 32.1 28.9 31.9L31.4 28.6C31.7 28.2 31.8 27.8 31.8 27.3V16.8H22.5C21.6 16.8 20.7 17.2 20 17.8C19.4 18.5 19 19.4 19 20.3Z" fill="#F39D56"/>
<path fill-rule="evenodd" clip-rule="evenodd" d="M28.5 22.1L30.7 26.1C30.8 26.3 30.8 26.5 30.7 26.6C30.6 26.8 30.5 26.9 30.3 26.9H28.6V31.1C28.6 31.7 28.1 32.2 27.5 32.2H24.2C23.6 32.2 23.1 32 22.7 31.6L19.6 28.4C19.3 28.1 19.1 27.6 19.1 27.1V22H28.5V22.1Z" fill="#FDF4D9"/>
<path fill-rule="evenodd" clip-rule="evenodd" d="M19.7 25.6H18.1C17.8 25.6 17.6 25.5 17.4 25.3C17.2 25.1 17.1 24.9 17.1 24.6V21.7C17.1 21.2 17.5 20.7 18.1 20.7C18.4 20.7 18.7 20.9 19 21.2C19.5 21.8 19.7 22.4 19.7 23.1V25.6Z" fill="#FDF4D9"/>
<path fill-rule="evenodd" clip-rule="evenodd" d="M34.1 20.2H19V17H32.2L34.5 19.3C34.7 19.5 34.7 19.7 34.6 19.9C34.5 20.1 34.3 20.2 34.1 20.2Z" fill="#4B4B4B"/>
<path fill-rule="evenodd" clip-rule="evenodd" d="M29.1 8.89998C29.7 8.79998 30.4 8.99998 31 9.29998C32.5 10.1 33.3 11.2 34.5 12.4C34.7001 12.6 34.8 12.8 34.8 13.1C34.8 13.4 34.7001 13.6 34.5 13.8C33.5 15.2 32.4 16.3 32.3 16.3L15.9 16C15.1 15.8 14.4 15.7 13.6 15.5C13.2 15.4 12.8 15 12.8 14.5C12.8 14 13 13.6 13.4 13.4C18.3 10.8 23.6 9.29998 29.1 8.89998Z" fill="#4B4B4B"/>
<path fill-rule="evenodd" clip-rule="evenodd" d="M15.7 16H32.5998L33.0998 17.9H15.7V16Z" fill="#00B14F"/>
<path fill-rule="evenodd" clip-rule="evenodd" d="M24.7 36.6H15.6V32.2H20.4C22.7 32.3 24.7 34.2 24.7 36.6Z" fill="white"/>
<path fill-rule="evenodd" clip-rule="evenodd" d="M28.5 39.7V55C27.8 55 27.2 54.7 26.7 54.3C26.2 53.8 26 53.2 26 52.5V40.1L23.5 37.4H25.8H30.6L28.5 39.7Z" fill="#006A2F"/>
<path d="M44.7 27.7C40.8 27.7 37.1 31.2 35 36.1C34.3 37.8 33.8 39.6 33.6 41.5C33.1 46 34 50 36 52.5C36.5 53.2 37.1 53.7 37.8 54.2C38.8 54.9 40 55.2 41.2 55.2C46.3 55.2 51.2 49.2 52.3 41.8C52.3 41.7 52.3 41.6 52.3 41.4C53.4 33.9 49.9 27.7 44.7 27.7ZM37.6 37.7C39.2 33.2 42.4 30.4 44.9 30.4C45.9 30.4 46.9 30.9 47.5 31.7C48.9 33.5 49.7 35.7 49.7 38.1C49.7 38.4 49.6 38.7 49.4 38.9C49.2 39.1 48.9 39.3 48.6 39.3H38.6C38.2 39.3 37.9 39.2 37.7 38.9C37.5 38.4 37.4 38 37.6 37.7ZM36.4 42.9C36.4 42.6 36.7 42.4 36.9 42.4H39.2C39.9 42.4 40.5 42.7 41 43.2C41.4 43.7 41.6 44.4 41.5 45.1L40.2 52.4C39.6 52.2 39 51.8 38.5 51.3C37 49.5 36.2 46.4 36.4 42.9ZM46.8 48.8C45.7 50.3 44.5 51.5 43.3 52.1L43.4 51.4L44.5 45.2C44.8 43.6 46.1 42.5 47.7 42.5H48.7C48.9 42.5 49 42.6 49.1 42.7C49.2 42.8 49.2 43 49.2 43.2C48.7 45.3 47.9 47.2 46.8 48.8C46.8 48.7 46.8 48.7 46.8 48.8Z" fill="#4B4B4B"/>
</g>
<defs>
<clipPath id="clip0_20_1142">
<rect width="56" height="56" fill="white"/>
</clipPath>
</defs>
</svg>
