<svg width="56" height="56" viewBox="0 0 56 56" fill="none" xmlns="http://www.w3.org/2000/svg">
<g clip-path="url(#clip0_20_1159)">
<path d="M28 0.000213623C12.5 0.000213623 0 12.6002 0 28.0002C0 43.4002 12.6 56.0002 28 56.0002C43.4 56.0002 56 43.4002 56 28.0002C56 12.6002 43.4 0.000213623 28 0.000213623Z" fill="#C6EED7"/>
<path d="M13 35.5003C13 35.5003 9.3 36.4003 6.5 34.2003V16.8003L13 13.8003V35.5003Z" fill="#FDB47E"/>
<path d="M8.3 19.4003H6.5V22.0003V34.2003C7.1 34.6003 7.7 35.0003 8.3 35.2003V24.1003C10.2 25.4003 12.5 25.3003 12.5 25.3003V19.4003H8.3Z" fill="#E48544"/>
<path d="M45.5 14.8003H12.5V31.3003H45.5V14.8003Z" fill="#008E3F"/>
<path d="M23.1 19.2003C35.2 19.0003 35.1 14.8003 35.1 14.8003H12.5V25.3003C20.8 24.9003 23.1 19.2003 23.1 19.2003Z" fill="#006A2F"/>
<path d="M42.9 14.8003H39.5H15.1H12.5V17.4003V25.3003V28.7003V31.3003H15.1H18.5H42.9H45.5V28.7003V20.8003V17.4003V14.8003H42.9ZM19.1 28.7003C18.9 26.6003 17.2 25.0003 15.2 24.8003V17.5003H39C39.2 19.6003 40.9 21.2003 42.9 21.4003V28.7003H19.1Z" fill="#00B14F"/>
<path d="M15.1 24.7003V17.4003H32.8C35.1 16.2003 35.1 14.8003 35.1 14.8003H15.1H12.5V17.4003V25.3003C13.6 25.2003 14.7 25.1003 15.6 24.8003C15.4 24.8003 15.3 24.8003 15.1 24.7003Z" fill="#008E3F"/>
<path d="M45.5 31.3003H12.5V41.2003H45.5V31.3003Z" fill="#008E3F"/>
<path d="M45.5 34.3003H12.5V34.9003H45.5V34.3003Z" fill="#006A2F"/>
<path d="M45.5 37.6003H12.5V38.2003H45.5V37.6003Z" fill="#006A2F"/>
<path d="M31.8 14.8003H26.3V31.3003H31.8V14.8003Z" fill="#4DC884"/>
<path d="M31.8 31.3003H26.3V41.2003H31.8V31.3003Z" fill="#00B14F"/>
<path d="M31.7 17.9003V14.8003H26.2V19.0003C28.6 18.9003 30.4 18.5003 31.7 17.9003Z" fill="#00B14F"/>
<path d="M9.10002 21.0003C16.4 22.5003 21.5 16.6003 21.5 16.6003C21.5 16.6003 22.3 17.1003 27.6 17.0003C30.2 17.0003 31.6 16.3003 32.5 15.7003C33.2 15.2003 32.6 14.6003 31.8 14.4003C28.6 13.6003 21.4 11.6003 19.1 11.2003C16.1 10.6003 6.40002 16.4003 6.40002 16.4003V20.4003" fill="#FDB47E"/>
<path d="M6.5 34.8003V16.8003C6.5 16.2003 6.1 15.8003 5.5 15.8003H2.8C1 19.5003 0 23.6003 0 28.0003C0 30.7003 0.4 33.3003 1.1 35.8003H5.5C6.1 35.8003 6.5 35.3003 6.5 34.8003Z" fill="#4B4B4B"/>
<path d="M3 30.5002C3.82843 30.5002 4.5 29.8287 4.5 29.0002C4.5 28.1718 3.82843 27.5002 3 27.5002C2.17157 27.5002 1.5 28.1718 1.5 29.0002C1.5 29.8287 2.17157 30.5002 3 30.5002Z" fill="white"/>
<path d="M25.3 38.6001C24.7 38.7001 24.2 39.0001 23.7 39.4001L22.3 40.4001C22 40.6001 22.1 41.0001 22.4 41.1001L23 41.3001H25.3H26.3V38.6001C26.2 38.6001 26.1 38.6001 26.1 38.6001C25.8 38.5001 25.5 38.5001 25.3 38.6001Z" fill="#006A2F"/>
<path d="M44.1 34.4002C41.8 34.5002 37.9001 34.8002 36.7001 35.0002C35.0001 35.4002 34.7 36.2002 35 36.7002C35.2 37.3002 37.1001 37.9002 38.9001 38.2002C39.0001 38.2002 39.2 38.2002 39.3 38.2002C37.3 39.1002 35.3 40.0002 35.3 40.0002L31.8 39.4002V41.2002H44.6V38.0002V34.3002L44.1 34.4002Z" fill="#006A2F"/>
<path d="M26.8 38.5002C26.6 38.5002 26.4 38.5002 26.3 38.5002V41.2002H30.8H31.8V39.4002L26.8 38.5002Z" fill="#008E3F"/>
<path d="M53.5 32.8002C51.2 32.0002 46.6 33.1002 45.1 33.4002C45 33.4002 44.9 33.4002 44.7 33.4002C44.7 33.4002 38.6 33.7002 37.1 34.0002C35.6 34.3002 35.5 35.0002 35.6 35.5002C35.8 36.0002 37.4 36.5002 38.9 36.7002C40.4 36.9002 43 37.1002 43 37.1002C44.1 37.2002 35.8 41.1002 35.8 41.1002L28.4 39.8002C27.5 39.6002 26.5 39.9002 25.8 40.5002L25.2 40.9002C25 41.1002 25.1 41.4002 25.3 41.5002L35.1 44.3002C35.3 44.4002 35.6 44.4002 35.8 44.4002L46.7 42.5002C47.1 42.4002 47.5 42.4002 48 42.5002L51.4 43.4002C53.3 40.5002 54.7 37.3002 55.4 33.8002C54.8 33.4002 54.2 33.0002 53.5 32.8002Z" fill="#FDB47E"/>
<path d="M43.1 37.1002C43.2 37.2002 42.5 37.6002 41.6 38.2002C41.6 38.2002 41.6 38.2002 41.5 38.2002C41.8 38.2002 42.6 38.0002 42.9 38.0002C43.6 38.0002 44.2 37.8002 45 37.8002C45.3 37.8002 45.7 37.8002 46 37.8002C46.1 37.8002 46.3 37.8002 46.4 37.8002C46.5 37.7002 46.6 37.7002 46.6 37.7002C45.6 37.5002 43.8 37.2002 43.1 37.1002Z" fill="#E48544"/>
</g>
<defs>
<clipPath id="clip0_20_1159">
<rect width="56" height="56" fill="white"/>
</clipPath>
</defs>
</svg>
