<svg width="56" height="56" viewBox="0 0 56 56" fill="none" xmlns="http://www.w3.org/2000/svg">
<g clip-path="url(#clip0_20_1247)">
<path d="M28 56C43.464 56 56 43.464 56 28C56 12.536 43.464 0 28 0C12.536 0 0 12.536 0 28C0 43.464 12.536 56 28 56Z" fill="#CCEFDC"/>
<path d="M28.7 47.9C41.2369 47.9 51.4 47.318 51.4 46.6C51.4 45.882 41.2369 45.3 28.7 45.3C16.1631 45.3 6 45.882 6 46.6C6 47.318 16.1631 47.9 28.7 47.9Z" fill="#99E0B9"/>
<path d="M23.8 11H12.5V46.3H23.8V11Z" fill="#008E3F"/>
<path d="M45.5 11H23.8V46.3H45.5V11Z" fill="white"/>
<path fill-rule="evenodd" clip-rule="evenodd" d="M38.6 41.8V46.3H31.4V41.8C31.5 39.9 33.1 38.4 35 38.4C36.8 38.4 38.4 39.9 38.6 41.8Z" fill="#008E3F"/>
<path d="M16.7 16.7C16.7 16.3 16.5 15.9 16.2 15.6C15.9 15.3 15.5 15.1 15.1 15.1H11C10.6 15.1 10.2 15.3 9.90002 15.6C9.60002 15.9 9.40002 16.3 9.40002 16.7V42.5C9.40002 42.9 9.60002 43.3 9.90002 43.6C10.2 43.9 10.6 44.1 11 44.1H15.2C15.6 44.1 16 43.9 16.3 43.6C16.6 43.3 16.8 42.9 16.8 42.5V16.7H16.7Z" fill="#EE6352"/>
<path d="M19.8 16.7C19.8 16.3 19.6 15.9 19.3 15.6C19 15.3 18.6 15.1 18.1 15.1H13.6C12.7 15.1 11.9 15.8 11.9 16.7V42.5C11.9 43.4 12.6 44.1 13.6 44.1H18.1C18.5 44.1 19 43.9 19.3 43.6C19.6 43.3 19.8 42.9 19.8 42.5V16.7Z" fill="#F39D56"/>
<path d="M15.9 17.1L16.5 19H18.5L16.9 20.2L17.5 22.1L15.9 20.9L14.2 22.1L14.9 20.2L13.2 19H15.3L15.9 17.1Z" fill="white" stroke="white" stroke-width="0.5" stroke-miterlimit="10" stroke-linejoin="round"/>
<path d="M15.9 23.7L16.5 25.6H18.5L16.9 26.8L17.5 28.7L15.9 27.5L14.2 28.7L14.9 26.8L13.2 25.6H15.3L15.9 23.7Z" fill="white" stroke="white" stroke-width="0.5" stroke-miterlimit="10" stroke-linejoin="round"/>
<path d="M15.9 30.3L16.5 32.2H18.5L16.9 33.4L17.5 35.3L15.9 34.1L14.2 35.3L14.9 33.4L13.2 32.2H15.3L15.9 30.3Z" fill="white" stroke="white" stroke-width="0.5" stroke-miterlimit="10" stroke-linejoin="round"/>
<path d="M15.9 36.9L16.5 38.8H18.5L16.9 40L17.5 41.9L15.9 40.7L14.2 41.9L14.9 40L13.2 38.8H15.3L15.9 36.9Z" fill="white" stroke="white" stroke-width="0.5" stroke-miterlimit="10" stroke-linejoin="round"/>
<path fill-rule="evenodd" clip-rule="evenodd" d="M12.4 10.5C11.7 10.5 11.2 11 11.2 11.7C11.2 12.4 11.8 13 12.4 12.9H45.6C46.3 12.9 46.8 12.4 46.8 11.7C46.8 11 46.2 10.4 45.6 10.5H12.4Z" fill="#006A2F"/>
<path fill-rule="evenodd" clip-rule="evenodd" d="M33.4 34.8V31.1H36.3V34.8H33.4ZM39.3 34.8V31.1H42.2V34.8H39.3ZM27.5 34.8V31.1H30.4V34.8H27.5ZM33.4 20.6V16.9H36.3V20.6H33.4ZM39.3 20.6V16.9H42.2V20.6H39.3ZM27.5 20.6V16.9H30.4V20.6H27.5ZM33.4 27.7V24H36.3V27.7H33.4ZM39.3 27.7V24H42.2V27.7H39.3ZM27.5 27.7V24H30.4V27.7H27.5Z" fill="#008E3F"/>
</g>
<defs>
<clipPath id="clip0_20_1247">
<rect width="56" height="56" fill="white"/>
</clipPath>
</defs>
</svg>
