<svg width="56" height="56" viewBox="0 0 56 56" fill="none" xmlns="http://www.w3.org/2000/svg">
<g clip-path="url(#clip0_20_1017)">
<path d="M17.5828 16H42.6159C43.9073 16 45 17.2941 45 18.8235V22H17.5828C16.192 22 15 20.7059 15 18.9412C15 17.2941 16.192 16 17.5828 16Z" fill="#002A6A"/>
<path d="M11.002 23.9946C11.0001 22.3377 12.3431 21 14 21H42.6932C43.997 21 45 21 45 22.9685V38.0315C45 39.1441 43.997 40 42.6932 40H13.708C13.4261 40 13.1584 39.964 12.9093 39.8975C11.3085 39.4703 11.0526 36.4385 11.0391 34.7817C11.0144 31.7358 11.0053 27.0411 11.002 23.9946Z" fill="#4F38C0"/>
<path d="M45 18V22V23.5L42 21C43.6154 21 45 19.6154 45 18Z" fill="#4F38C0"/>
<path d="M14.63 30.86C14.63 30.02 14.816 29.276 15.188 28.628C15.572 27.98 16.088 27.47 16.736 27.098C17.384 26.726 18.11 26.54 18.914 26.54C19.73 26.54 20.456 26.726 21.092 27.098C21.74 27.47 22.25 27.98 22.622 28.628C23.006 29.276 23.198 30.02 23.198 30.86C23.198 31.688 23.006 32.432 22.622 33.092C22.25 33.74 21.74 34.25 21.092 34.622C20.456 34.994 19.73 35.18 18.914 35.18C18.11 35.18 17.384 34.994 16.736 34.622C16.088 34.25 15.572 33.74 15.188 33.092C14.816 32.432 14.63 31.688 14.63 30.86ZM16.088 30.86C16.088 31.436 16.208 31.946 16.448 32.39C16.7 32.834 17.036 33.188 17.456 33.452C17.888 33.704 18.374 33.83 18.914 33.83C19.454 33.83 19.934 33.704 20.354 33.452C20.786 33.188 21.122 32.834 21.362 32.39C21.614 31.946 21.74 31.436 21.74 30.86C21.74 30.284 21.614 29.774 21.362 29.33C21.122 28.874 20.786 28.52 20.354 28.268C19.934 28.016 19.454 27.89 18.914 27.89C18.374 27.89 17.888 28.016 17.456 28.268C17.036 28.52 16.7 28.874 16.448 29.33C16.208 29.774 16.088 30.284 16.088 30.86ZM23.5625 26.72H25.1825L27.5225 32.57L29.8625 26.72H31.4825L27.5225 35.63L23.5625 26.72ZM31.8566 30.86C31.8566 30.02 32.0426 29.276 32.4146 28.628C32.7986 27.98 33.3146 27.47 33.9626 27.098C34.6106 26.726 35.3366 26.54 36.1406 26.54C36.9566 26.54 37.6826 26.726 38.3186 27.098C38.9666 27.47 39.4766 27.98 39.8486 28.628C40.2326 29.276 40.4246 30.02 40.4246 30.86C40.4246 31.688 40.2326 32.432 39.8486 33.092C39.4766 33.74 38.9666 34.25 38.3186 34.622C37.6826 34.994 36.9566 35.18 36.1406 35.18C35.3366 35.18 34.6106 34.994 33.9626 34.622C33.3146 34.25 32.7986 33.74 32.4146 33.092C32.0426 32.432 31.8566 31.688 31.8566 30.86ZM33.3146 30.86C33.3146 31.436 33.4346 31.946 33.6746 32.39C33.9266 32.834 34.2626 33.188 34.6826 33.452C35.1146 33.704 35.6006 33.83 36.1406 33.83C36.6806 33.83 37.1606 33.704 37.5806 33.452C38.0126 33.188 38.3486 32.834 38.5886 32.39C38.8406 31.946 38.9666 31.436 38.9666 30.86C38.9666 30.284 38.8406 29.774 38.5886 29.33C38.3486 28.874 38.0126 28.52 37.5806 28.268C37.1606 28.016 36.6806 27.89 36.1406 27.89C35.6006 27.89 35.1146 28.016 34.6826 28.268C34.2626 28.52 33.9266 28.874 33.6746 29.33C33.4346 29.774 33.3146 30.284 33.3146 30.86Z" fill="white"/>
</g>
<defs>
<clipPath id="clip0_20_1017">
<rect width="56" height="56" fill="white"/>
</clipPath>
</defs>
</svg>
